  0
SECTION
  2
HEADER
  9
$ACADVER
  1
AC1009
  9
$INSBASE
 10
0.0
 20
0.0
 30
0.0
  9
$EXTMIN
 10
0.0
 20
0.0
 30
0.0
  9
$EXTMAX
 10
0.0
 20
0.0
 30
0.0
  0
ENDSEC
  0
SECTION
  2
TABLES
  0
TABLE
  2
VPORT
 70
1
  0
VPORT
  2
*ACTIVE
 70
0
 10
0.0
 20
0.0
 11
1.0
 21
1.0
 12
-5.0
 22
1.0
 13
0.0
 23
0.0
 14
0.1
 24
0.1
 15
0.1
 25
0.1
 16
0.0
 26
0.0
 36
1.0
 17
0.0
 27
0.0
 37
0.0
 40
10.0
 41
1.0
 42
50.0
 43
0.0
 44
0.0
 50
0.0
 51
0.0
 71
0
 72
100
 73
1
 74
1
 75
0
 76
0
 77
0
 78
0
  0
ENDTAB
  0
TABLE
  2
LTYPE
 70
8
  0
LTYPE
  2
CONTINUOUS
 70
0
  3
Solid line
 72
65
 73
0
 40
0.0
  0
LTYPE
  2
DOT
 70
0
  3
. . . . . . .
 72
65
 73
2
 40
0.25
 49
0.0
 49
-0.25
  0
LTYPE
  2
DASHED
 70
0
  3
__ __ __ __ __
 72
65
 73
2
 40
0.8
 49
0.5
 49
-0.3
  0
LTYPE
  2
DASHDOT
 70
0
  3
__ . __ . __ .
 72
65
 73
4
 40
1.0
 49
0.5
 49
-0.25
 49
0.0
 49
-0.25
  0
LTYPE
  2
DIVIDE
 70
0
  3
____ . . ____ . . 
 72
65
 73
6
 40
1.25
 49
0.5
 49
-0.25
 49
0.0
 49
-0.25
 49
0.0
 49
-0.25
  0
LTYPE
  2
BORDER
 70
0
  3
__ __ . __ __ . 
 72
65
 73
6
 40
1.75
 49
0.5
 49
-0.25
 49
0.5
 49
-0.25
 49
0.0
 49
-0.25
  0
LTYPE
  2
HIDDEN
 70
0
  3
__ __ __ __ __
 72
65
 73
2
 40
0.4
 49
0.25
 49
-0.25
  0
LTYPE
  2
CENTER
 70
0
  3
____ _ ____ _ __
 72
65
 73
4
 40
2.0
 49
1.25
 49
-0.25
 49
0.25
 49
-0.25
  0
ENDTAB
  0
TABLE
  2
LAYER
 70
1
  0
LAYER
  2
PYDXF
 70
64
 62
7
  6
continuous
  0
ENDTAB
  0
TABLE
  2
STYLE
 70
1
  0
STYLE
  2
STANDARD
 70
0
 40
0
 41
1.0
 50
0.0
 71
0
 42
1
 3
ARIAL.TTF
 4

  0
ENDTAB
  0
TABLE
  2
VIEW
 70
1
  0
VIEW
  2
BF_TOPVIEW
 70
0
 40
120.0
 10
0.0
 20
0.0
 41
200.0
 11
0.0
 21
0.0
 31
1.0
 12
0.0
 22
0.0
 32
0.0
 42
50.0
 43
0.0
 44
0.0
 50
0.0
 71
0
  0
ENDTAB
  0
ENDSEC
  0
SECTION
  2
BLOCKS
  0
ENDSEC
  0
SECTION
  2
ENTITIES
  0
3DFACE
  8
0
 10
0.0
 20
0.0
 30
30.0
 11
0.0
 21
30.0
 31
0.0
 12
0.0
 22
0.0
 32
0.0
 13
0.0
 23
0.0
 33
0.0
  0
3DFACE
  8
0
 10
0.0
 20
30.0
 30
0.0
 11
10.0
 21
30.0
 31
0.0
 12
0.0
 22
0.0
 32
0.0
 13
0.0
 23
0.0
 33
0.0
  0
3DFACE
  8
0
 10
10.0
 20
30.0
 30
0.0
 11
10.0
 21
0.0
 31
0.0
 12
0.0
 22
0.0
 32
0.0
 13
0.0
 23
0.0
 33
0.0
  0
3DFACE
  8
0
 10
10.0
 20
0.0
 30
0.0
 11
10.135232925415039
 21
0.0
 31
2.3218579292297363
 12
0.0
 22
0.0
 32
0.0
 13
0.0
 23
0.0
 33
0.0
  0
3DFACE
  8
0
 10
10.135232925415039
 20
0.0
 30
2.3218579292297363
 11
10.539102554321289
 21
0.0
 31
4.612317085266113
 12
0.0
 22
0.0
 32
0.0
 13
0.0
 23
0.0
 33
0.0
  0
3DFACE
  8
0
 10
10.539102554321289
 20
0.0
 30
4.612317085266113
 11
0.0
 21
0.0
 31
30.0
 12
0.0
 22
0.0
 32
0.0
 13
0.0
 23
0.0
 33
0.0
  0
3DFACE
  8
0
 10
10.0
 20
30.0
 30
0.0
 11
10.135232925415039
 21
0.0
 31
2.3218579292297363
 12
10.0
 22
0.0
 32
0.0
 13
10.0
 23
0.0
 33
0.0
  0
3DFACE
  8
0
 10
50.0
 20
30.0
 30
0.0
 11
60.0
 21
30.0
 31
0.0
 12
50.0
 22
0.0
 32
0.0
 13
50.0
 23
0.0
 33
0.0
  0
3DFACE
  8
0
 10
60.0
 20
30.0
 30
0.0
 11
60.0
 21
0.0
 31
0.0
 12
50.0
 22
0.0
 32
0.0
 13
50.0
 23
0.0
 33
0.0
  0
3DFACE
  8
0
 10
49.864768981933594
 20
30.0
 30
2.3218579292297363
 11
50.0
 21
30.0
 31
0.0
 12
50.0
 22
0.0
 32
0.0
 13
50.0
 23
0.0
 33
0.0
  0
3DFACE
  8
0
 10
49.864768981933594
 20
0.0
 30
2.3218579292297363
 11
49.864768981933594
 21
30.0
 31
2.3218579292297363
 12
50.0
 22
0.0
 32
0.0
 13
50.0
 23
0.0
 33
0.0
  0
3DFACE
  8
0
 10
60.0
 20
0.0
 30
0.0
 11
49.864768981933594
 21
0.0
 31
2.3218579292297363
 12
50.0
 22
0.0
 32
0.0
 13
50.0
 23
0.0
 33
0.0
  0
3DFACE
  8
0
 10
60.0
 20
30.0
 30
0.0
 11
60.0
 21
30.0
 31
30.0
 12
60.0
 22
0.0
 32
0.0
 13
60.0
 23
0.0
 33
0.0
  0
3DFACE
  8
0
 10
60.0
 20
30.0
 30
30.0
 11
60.0
 21
0.0
 31
30.0
 12
60.0
 22
0.0
 32
0.0
 13
60.0
 23
0.0
 33
0.0
  0
3DFACE
  8
0
 10
60.0
 20
0.0
 30
30.0
 11
48.793853759765625
 21
0.0
 31
6.840402126312256
 12
60.0
 22
0.0
 32
0.0
 13
60.0
 23
0.0
 33
0.0
  0
3DFACE
  8
0
 10
48.793853759765625
 20
0.0
 30
6.840402126312256
 11
49.460899353027344
 21
0.0
 31
4.612317085266113
 12
60.0
 22
0.0
 32
0.0
 13
60.0
 23
0.0
 33
0.0
  0
3DFACE
  8
0
 10
49.460899353027344
 20
0.0
 30
4.612317085266113
 11
49.864768981933594
 21
0.0
 31
2.3218579292297363
 12
60.0
 22
0.0
 32
0.0
 13
60.0
 23
0.0
 33
0.0
  0
3DFACE
  8
0
 10
10.135232925415039
 20
30.0
 30
2.3218579292297363
 11
10.539102554321289
 21
0.0
 31
4.612317085266113
 12
10.135232925415039
 22
0.0
 32
2.3218579292297363
 13
10.135232925415039
 23
0.0
 33
2.3218579292297363
  0
3DFACE
  8
0
 10
10.0
 20
30.0
 30
0.0
 11
10.135232925415039
 21
30.0
 31
2.3218579292297363
 12
10.135232925415039
 22
0.0
 32
2.3218579292297363
 13
10.135232925415039
 23
0.0
 33
2.3218579292297363
  0
3DFACE
  8
0
 10
49.460899353027344
 20
30.0
 30
4.612317085266113
 11
49.864768981933594
 21
30.0
 31
2.3218579292297363
 12
49.864768981933594
 22
0.0
 32
2.3218579292297363
 13
49.864768981933594
 23
0.0
 33
2.3218579292297363
  0
3DFACE
  8
0
 10
49.460899353027344
 20
0.0
 30
4.612317085266113
 11
49.460899353027344
 21
30.0
 31
4.612317085266113
 12
49.864768981933594
 22
0.0
 32
2.3218579292297363
 13
49.864768981933594
 23
0.0
 33
2.3218579292297363
  0
3DFACE
  8
0
 10
10.539102554321289
 20
30.0
 30
4.612317085266113
 11
11.206147193908691
 21
0.0
 31
6.840402126312256
 12
10.539102554321289
 22
0.0
 32
4.612317085266113
 13
10.539102554321289
 23
0.0
 33
4.612317085266113
  0
3DFACE
  8
0
 10
10.135232925415039
 20
30.0
 30
2.3218579292297363
 11
10.539102554321289
 21
30.0
 31
4.612317085266113
 12
10.539102554321289
 22
0.0
 32
4.612317085266113
 13
10.539102554321289
 23
0.0
 33
4.612317085266113
  0
3DFACE
  8
0
 10
11.206147193908691
 20
0.0
 30
6.840402126312256
 11
0.0
 21
0.0
 31
30.0
 12
10.539102554321289
 22
0.0
 32
4.612317085266113
 13
10.539102554321289
 23
0.0
 33
4.612317085266113
  0
3DFACE
  8
0
 10
48.793853759765625
 20
30.0
 30
6.840402126312256
 11
49.460899353027344
 21
30.0
 31
4.612317085266113
 12
49.460899353027344
 22
0.0
 32
4.612317085266113
 13
49.460899353027344
 23
0.0
 33
4.612317085266113
  0
3DFACE
  8
0
 10
48.793853759765625
 20
0.0
 30
6.840402126312256
 11
48.793853759765625
 21
30.0
 31
6.840402126312256
 12
49.460899353027344
 22
0.0
 32
4.612317085266113
 13
49.460899353027344
 23
0.0
 33
4.612317085266113
  0
3DFACE
  8
0
 10
11.206147193908691
 20
30.0
 30
6.840402126312256
 11
12.127346992492676
 21
0.0
 31
8.975982666015625
 12
11.206147193908691
 22
0.0
 32
6.840402126312256
 13
11.206147193908691
 23
0.0
 33
6.840402126312256
  0
3DFACE
  8
0
 10
10.539102554321289
 20
30.0
 30
4.612317085266113
 11
11.206147193908691
 21
30.0
 31
6.840402126312256
 12
11.206147193908691
 22
0.0
 32
6.840402126312256
 13
11.206147193908691
 23
0.0
 33
6.840402126312256
  0
3DFACE
  8
0
 10
12.127346992492676
 20
0.0
 30
8.975982666015625
 11
0.0
 21
0.0
 31
30.0
 12
11.206147193908691
 22
0.0
 32
6.840402126312256
 13
11.206147193908691
 23
0.0
 33
6.840402126312256
  0
3DFACE
  8
0
 10
47.872650146484375
 20
30.0
 30
8.975982666015625
 11
48.793853759765625
 21
30.0
 31
6.840402126312256
 12
48.793853759765625
 22
0.0
 32
6.840402126312256
 13
48.793853759765625
 23
0.0
 33
6.840402126312256
  0
3DFACE
  8
0
 10
47.872650146484375
 20
0.0
 30
8.975982666015625
 11
47.872650146484375
 21
30.0
 31
8.975982666015625
 12
48.793853759765625
 22
0.0
 32
6.840402126312256
 13
48.793853759765625
 23
0.0
 33
6.840402126312256
  0
3DFACE
  8
0
 10
60.0
 20
0.0
 30
30.0
 11
47.872650146484375
 21
0.0
 31
8.975982666015625
 12
48.793853759765625
 22
0.0
 32
6.840402126312256
 13
48.793853759765625
 23
0.0
 33
6.840402126312256
  0
3DFACE
  8
0
 10
12.127346992492676
 20
30.0
 30
8.975982666015625
 11
13.290244102478027
 21
0.0
 31
10.990178108215332
 12
12.127346992492676
 22
0.0
 32
8.975982666015625
 13
12.127346992492676
 23
0.0
 33
8.975982666015625
  0
3DFACE
  8
0
 10
11.206147193908691
 20
30.0
 30
6.840402126312256
 11
12.127346992492676
 21
30.0
 31
8.975982666015625
 12
12.127346992492676
 22
0.0
 32
8.975982666015625
 13
12.127346992492676
 23
0.0
 33
8.975982666015625
  0
3DFACE
  8
0
 10
13.290244102478027
 20
0.0
 30
10.990178108215332
 11
0.0
 21
0.0
 31
30.0
 12
12.127346992492676
 22
0.0
 32
8.975982666015625
 13
12.127346992492676
 23
0.0
 33
8.975982666015625
  0
3DFACE
  8
0
 10
46.70975875854492
 20
30.0
 30
10.990178108215332
 11
47.872650146484375
 21
30.0
 31
8.975982666015625
 12
47.872650146484375
 22
0.0
 32
8.975982666015625
 13
47.872650146484375
 23
0.0
 33
8.975982666015625
  0
3DFACE
  8
0
 10
46.70975875854492
 20
0.0
 30
10.990178108215332
 11
46.70975875854492
 21
30.0
 31
10.990178108215332
 12
47.872650146484375
 22
0.0
 32
8.975982666015625
 13
47.872650146484375
 23
0.0
 33
8.975982666015625
  0
3DFACE
  8
0
 10
60.0
 20
0.0
 30
30.0
 11
46.70975875854492
 21
0.0
 31
10.990178108215332
 12
47.872650146484375
 22
0.0
 32
8.975982666015625
 13
47.872650146484375
 23
0.0
 33
8.975982666015625
  0
3DFACE
  8
0
 10
13.290244102478027
 20
30.0
 30
10.990178108215332
 11
14.67911148071289
 21
0.0
 31
12.855751037597656
 12
13.290244102478027
 22
0.0
 32
10.990178108215332
 13
13.290244102478027
 23
0.0
 33
10.990178108215332
  0
3DFACE
  8
0
 10
12.127346992492676
 20
30.0
 30
8.975982666015625
 11
13.290244102478027
 21
30.0
 31
10.990178108215332
 12
13.290244102478027
 22
0.0
 32
10.990178108215332
 13
13.290244102478027
 23
0.0
 33
10.990178108215332
  0
3DFACE
  8
0
 10
14.67911148071289
 20
0.0
 30
12.855751037597656
 11
0.0
 21
0.0
 31
30.0
 12
13.290244102478027
 22
0.0
 32
10.990178108215332
 13
13.290244102478027
 23
0.0
 33
10.990178108215332
  0
3DFACE
  8
0
 10
45.32088851928711
 20
30.0
 30
12.855751037597656
 11
46.70975875854492
 21
30.0
 31
10.990178108215332
 12
46.70975875854492
 22
0.0
 32
10.990178108215332
 13
46.70975875854492
 23
0.0
 33
10.990178108215332
  0
3DFACE
  8
0
 10
45.32088851928711
 20
0.0
 30
12.855751037597656
 11
45.32088851928711
 21
30.0
 31
12.855751037597656
 12
46.70975875854492
 22
0.0
 32
10.990178108215332
 13
46.70975875854492
 23
0.0
 33
10.990178108215332
  0
3DFACE
  8
0
 10
60.0
 20
0.0
 30
30.0
 11
45.32088851928711
 21
0.0
 31
12.855751037597656
 12
46.70975875854492
 22
0.0
 32
10.990178108215332
 13
46.70975875854492
 23
0.0
 33
10.990178108215332
  0
3DFACE
  8
0
 10
14.67911148071289
 20
30.0
 30
12.855751037597656
 11
16.27516746520996
 21
0.0
 31
14.54747200012207
 12
14.67911148071289
 22
0.0
 32
12.855751037597656
 13
14.67911148071289
 23
0.0
 33
12.855751037597656
  0
3DFACE
  8
0
 10
13.290244102478027
 20
30.0
 30
10.990178108215332
 11
14.67911148071289
 21
30.0
 31
12.855751037597656
 12
14.67911148071289
 22
0.0
 32
12.855751037597656
 13
14.67911148071289
 23
0.0
 33
12.855751037597656
  0
3DFACE
  8
0
 10
16.27516746520996
 20
0.0
 30
14.54747200012207
 11
0.0
 21
0.0
 31
30.0
 12
14.67911148071289
 22
0.0
 32
12.855751037597656
 13
14.67911148071289
 23
0.0
 33
12.855751037597656
  0
3DFACE
  8
0
 10
43.724830627441406
 20
30.0
 30
14.54747200012207
 11
45.32088851928711
 21
30.0
 31
12.855751037597656
 12
45.32088851928711
 22
0.0
 32
12.855751037597656
 13
45.32088851928711
 23
0.0
 33
12.855751037597656
  0
3DFACE
  8
0
 10
43.724830627441406
 20
0.0
 30
14.54747200012207
 11
43.724830627441406
 21
30.0
 31
14.54747200012207
 12
45.32088851928711
 22
0.0
 32
12.855751037597656
 13
45.32088851928711
 23
0.0
 33
12.855751037597656
  0
3DFACE
  8
0
 10
60.0
 20
0.0
 30
30.0
 11
43.724830627441406
 21
0.0
 31
14.54747200012207
 12
45.32088851928711
 22
0.0
 32
12.855751037597656
 13
45.32088851928711
 23
0.0
 33
12.855751037597656
  0
3DFACE
  8
0
 10
16.27516746520996
 20
30.0
 30
14.54747200012207
 11
18.05682945251465
 21
0.0
 31
16.042463302612305
 12
16.27516746520996
 22
0.0
 32
14.54747200012207
 13
16.27516746520996
 23
0.0
 33
14.54747200012207
  0
3DFACE
  8
0
 10
14.67911148071289
 20
30.0
 30
12.855751037597656
 11
16.27516746520996
 21
30.0
 31
14.54747200012207
 12
16.27516746520996
 22
0.0
 32
14.54747200012207
 13
16.27516746520996
 23
0.0
 33
14.54747200012207
  0
3DFACE
  8
0
 10
18.05682945251465
 20
0.0
 30
16.042463302612305
 11
0.0
 21
0.0
 31
30.0
 12
16.27516746520996
 22
0.0
 32
14.54747200012207
 13
16.27516746520996
 23
0.0
 33
14.54747200012207
  0
3DFACE
  8
0
 10
41.94316864013672
 20
30.0
 30
16.042463302612305
 11
43.724830627441406
 21
30.0
 31
14.54747200012207
 12
43.724830627441406
 22
0.0
 32
14.54747200012207
 13
43.724830627441406
 23
0.0
 33
14.54747200012207
  0
3DFACE
  8
0
 10
41.94316864013672
 20
0.0
 30
16.042463302612305
 11
41.94316864013672
 21
30.0
 31
16.042463302612305
 12
43.724830627441406
 22
0.0
 32
14.54747200012207
 13
43.724830627441406
 23
0.0
 33
14.54747200012207
  0
3DFACE
  8
0
 10
60.0
 20
0.0
 30
30.0
 11
41.94316864013672
 21
0.0
 31
16.042463302612305
 12
43.724830627441406
 22
0.0
 32
14.54747200012207
 13
43.724830627441406
 23
0.0
 33
14.54747200012207
  0
3DFACE
  8
0
 10
18.05682945251465
 20
30.0
 30
16.042463302612305
 11
20.0
 21
0.0
 31
17.320507049560547
 12
18.05682945251465
 22
0.0
 32
16.042463302612305
 13
18.05682945251465
 23
0.0
 33
16.042463302612305
  0
3DFACE
  8
0
 10
16.27516746520996
 20
30.0
 30
14.54747200012207
 11
18.05682945251465
 21
30.0
 31
16.042463302612305
 12
18.05682945251465
 22
0.0
 32
16.042463302612305
 13
18.05682945251465
 23
0.0
 33
16.042463302612305
  0
3DFACE
  8
0
 10
20.0
 20
0.0
 30
17.320507049560547
 11
0.0
 21
0.0
 31
30.0
 12
18.05682945251465
 22
0.0
 32
16.042463302612305
 13
18.05682945251465
 23
0.0
 33
16.042463302612305
  0
3DFACE
  8
0
 10
40.0
 20
30.0
 30
17.320507049560547
 11
41.94316864013672
 21
30.0
 31
16.042463302612305
 12
41.94316864013672
 22
0.0
 32
16.042463302612305
 13
41.94316864013672
 23
0.0
 33
16.042463302612305
  0
3DFACE
  8
0
 10
40.0
 20
0.0
 30
17.320507049560547
 11
40.0
 21
30.0
 31
17.320507049560547
 12
41.94316864013672
 22
0.0
 32
16.042463302612305
 13
41.94316864013672
 23
0.0
 33
16.042463302612305
  0
3DFACE
  8
0
 10
60.0
 20
0.0
 30
30.0
 11
40.0
 21
0.0
 31
17.320507049560547
 12
41.94316864013672
 22
0.0
 32
16.042463302612305
 13
41.94316864013672
 23
0.0
 33
16.042463302612305
  0
3DFACE
  8
0
 10
20.0
 20
30.0
 30
17.320507049560547
 11
22.07840347290039
 21
0.0
 31
18.364320755004883
 12
20.0
 22
0.0
 32
17.320507049560547
 13
20.0
 23
0.0
 33
17.320507049560547
  0
3DFACE
  8
0
 10
18.05682945251465
 20
30.0
 30
16.042463302612305
 11
20.0
 21
30.0
 31
17.320507049560547
 12
20.0
 22
0.0
 32
17.320507049560547
 13
20.0
 23
0.0
 33
17.320507049560547
  0
3DFACE
  8
0
 10
22.07840347290039
 20
0.0
 30
18.364320755004883
 11
0.0
 21
0.0
 31
30.0
 12
20.0
 22
0.0
 32
17.320507049560547
 13
20.0
 23
0.0
 33
17.320507049560547
  0
3DFACE
  8
0
 10
37.92159652709961
 20
30.0
 30
18.364320755004883
 11
40.0
 21
30.0
 31
17.320507049560547
 12
40.0
 22
0.0
 32
17.320507049560547
 13
40.0
 23
0.0
 33
17.320507049560547
  0
3DFACE
  8
0
 10
37.92159652709961
 20
0.0
 30
18.364320755004883
 11
37.92159652709961
 21
30.0
 31
18.364320755004883
 12
40.0
 22
0.0
 32
17.320507049560547
 13
40.0
 23
0.0
 33
17.320507049560547
  0
3DFACE
  8
0
 10
60.0
 20
0.0
 30
30.0
 11
37.92159652709961
 21
0.0
 31
18.364320755004883
 12
40.0
 22
0.0
 32
17.320507049560547
 13
40.0
 23
0.0
 33
17.320507049560547
  0
3DFACE
  8
0
 10
22.07840347290039
 20
30.0
 30
18.364320755004883
 11
24.263935089111328
 21
0.0
 31
19.1597900390625
 12
22.07840347290039
 22
0.0
 32
18.364320755004883
 13
22.07840347290039
 23
0.0
 33
18.364320755004883
  0
3DFACE
  8
0
 10
20.0
 20
30.0
 30
17.320507049560547
 11
22.07840347290039
 21
30.0
 31
18.364320755004883
 12
22.07840347290039
 22
0.0
 32
18.364320755004883
 13
22.07840347290039
 23
0.0
 33
18.364320755004883
  0
3DFACE
  8
0
 10
24.263935089111328
 20
0.0
 30
19.1597900390625
 11
0.0
 21
0.0
 31
30.0
 12
22.07840347290039
 22
0.0
 32
18.364320755004883
 13
22.07840347290039
 23
0.0
 33
18.364320755004883
  0
3DFACE
  8
0
 10
35.73606491088867
 20
30.0
 30
19.1597900390625
 11
37.92159652709961
 21
30.0
 31
18.364320755004883
 12
37.92159652709961
 22
0.0
 32
18.364320755004883
 13
37.92159652709961
 23
0.0
 33
18.364320755004883
  0
3DFACE
  8
0
 10
35.73606491088867
 20
0.0
 30
19.1597900390625
 11
35.73606491088867
 21
30.0
 31
19.1597900390625
 12
37.92159652709961
 22
0.0
 32
18.364320755004883
 13
37.92159652709961
 23
0.0
 33
18.364320755004883
  0
3DFACE
  8
0
 10
60.0
 20
0.0
 30
30.0
 11
35.73606491088867
 21
0.0
 31
19.1597900390625
 12
37.92159652709961
 22
0.0
 32
18.364320755004883
 13
37.92159652709961
 23
0.0
 33
18.364320755004883
  0
3DFACE
  8
0
 10
24.263935089111328
 20
30.0
 30
19.1597900390625
 11
26.527036666870117
 21
0.0
 31
19.696155548095703
 12
24.263935089111328
 22
0.0
 32
19.1597900390625
 13
24.263935089111328
 23
0.0
 33
19.1597900390625
  0
3DFACE
  8
0
 10
22.07840347290039
 20
30.0
 30
18.364320755004883
 11
24.263935089111328
 21
30.0
 31
19.1597900390625
 12
24.263935089111328
 22
0.0
 32
19.1597900390625
 13
24.263935089111328
 23
0.0
 33
19.1597900390625
  0
3DFACE
  8
0
 10
26.527036666870117
 20
0.0
 30
19.696155548095703
 11
0.0
 21
0.0
 31
30.0
 12
24.263935089111328
 22
0.0
 32
19.1597900390625
 13
24.263935089111328
 23
0.0
 33
19.1597900390625
  0
3DFACE
  8
0
 10
33.47296142578125
 20
30.0
 30
19.696155548095703
 11
35.73606491088867
 21
30.0
 31
19.1597900390625
 12
35.73606491088867
 22
0.0
 32
19.1597900390625
 13
35.73606491088867
 23
0.0
 33
19.1597900390625
  0
3DFACE
  8
0
 10
33.47296142578125
 20
0.0
 30
19.696155548095703
 11
33.47296142578125
 21
30.0
 31
19.696155548095703
 12
35.73606491088867
 22
0.0
 32
19.1597900390625
 13
35.73606491088867
 23
0.0
 33
19.1597900390625
  0
3DFACE
  8
0
 10
60.0
 20
0.0
 30
30.0
 11
33.47296142578125
 21
0.0
 31
19.696155548095703
 12
35.73606491088867
 22
0.0
 32
19.1597900390625
 13
35.73606491088867
 23
0.0
 33
19.1597900390625
  0
3DFACE
  8
0
 10
26.527036666870117
 20
30.0
 30
19.696155548095703
 11
28.83710289001465
 21
0.0
 31
19.966163635253906
 12
26.527036666870117
 22
0.0
 32
19.696155548095703
 13
26.527036666870117
 23
0.0
 33
19.696155548095703
  0
3DFACE
  8
0
 10
24.263935089111328
 20
30.0
 30
19.1597900390625
 11
26.527036666870117
 21
30.0
 31
19.696155548095703
 12
26.527036666870117
 22
0.0
 32
19.696155548095703
 13
26.527036666870117
 23
0.0
 33
19.696155548095703
  0
3DFACE
  8
0
 10
28.83710289001465
 20
0.0
 30
19.966163635253906
 11
0.0
 21
0.0
 31
30.0
 12
26.527036666870117
 22
0.0
 32
19.696155548095703
 13
26.527036666870117
 23
0.0
 33
19.696155548095703
  0
3DFACE
  8
0
 10
31.16289710998535
 20
30.0
 30
19.966163635253906
 11
33.47296142578125
 21
30.0
 31
19.696155548095703
 12
33.47296142578125
 22
0.0
 32
19.696155548095703
 13
33.47296142578125
 23
0.0
 33
19.696155548095703
  0
3DFACE
  8
0
 10
31.16289710998535
 20
0.0
 30
19.966163635253906
 11
31.16289710998535
 21
30.0
 31
19.966163635253906
 12
33.47296142578125
 22
0.0
 32
19.696155548095703
 13
33.47296142578125
 23
0.0
 33
19.696155548095703
  0
3DFACE
  8
0
 10
60.0
 20
0.0
 30
30.0
 11
31.16289710998535
 21
0.0
 31
19.966163635253906
 12
33.47296142578125
 22
0.0
 32
19.696155548095703
 13
33.47296142578125
 23
0.0
 33
19.696155548095703
  0
3DFACE
  8
0
 10
28.83710289001465
 20
30.0
 30
19.966163635253906
 11
31.16289710998535
 21
0.0
 31
19.966163635253906
 12
28.83710289001465
 22
0.0
 32
19.966163635253906
 13
28.83710289001465
 23
0.0
 33
19.966163635253906
  0
3DFACE
  8
0
 10
26.527036666870117
 20
30.0
 30
19.696155548095703
 11
28.83710289001465
 21
30.0
 31
19.966163635253906
 12
28.83710289001465
 22
0.0
 32
19.966163635253906
 13
28.83710289001465
 23
0.0
 33
19.966163635253906
  0
3DFACE
  8
0
 10
60.0
 20
0.0
 30
30.0
 11
0.0
 21
0.0
 31
30.0
 12
28.83710289001465
 22
0.0
 32
19.966163635253906
 13
28.83710289001465
 23
0.0
 33
19.966163635253906
  0
3DFACE
  8
0
 10
31.16289710998535
 20
0.0
 30
19.966163635253906
 11
60.0
 21
0.0
 31
30.0
 12
28.83710289001465
 22
0.0
 32
19.966163635253906
 13
28.83710289001465
 23
0.0
 33
19.966163635253906
  0
3DFACE
  8
0
 10
28.83710289001465
 20
30.0
 30
19.966163635253906
 11
31.16289710998535
 21
30.0
 31
19.966163635253906
 12
31.16289710998535
 22
0.0
 32
19.966163635253906
 13
31.16289710998535
 23
0.0
 33
19.966163635253906
  0
3DFACE
  8
0
 10
0.0
 20
30.0
 30
30.0
 11
0.0
 21
30.0
 31
0.0
 12
0.0
 22
0.0
 32
30.0
 13
0.0
 23
0.0
 33
30.0
  0
3DFACE
  8
0
 10
60.0
 20
0.0
 30
30.0
 11
0.0
 21
30.0
 31
30.0
 12
0.0
 22
0.0
 32
30.0
 13
0.0
 23
0.0
 33
30.0
  0
3DFACE
  8
0
 10
60.0
 20
30.0
 30
30.0
 11
0.0
 21
30.0
 31
30.0
 12
60.0
 22
0.0
 32
30.0
 13
60.0
 23
0.0
 33
30.0
  0
3DFACE
  8
0
 10
10.135232925415039
 20
30.0
 30
2.3218579292297363
 11
10.0
 21
30.0
 31
0.0
 12
0.0
 22
30.0
 32
0.0
 13
0.0
 23
30.0
 33
0.0
  0
3DFACE
  8
0
 10
0.0
 20
30.0
 30
30.0
 11
11.206147193908691
 21
30.0
 31
6.840402126312256
 12
0.0
 22
30.0
 32
0.0
 13
0.0
 23
30.0
 33
0.0
  0
3DFACE
  8
0
 10
11.206147193908691
 20
30.0
 30
6.840402126312256
 11
10.539102554321289
 21
30.0
 31
4.612317085266113
 12
0.0
 22
30.0
 32
0.0
 13
0.0
 23
30.0
 33
0.0
  0
3DFACE
  8
0
 10
10.539102554321289
 20
30.0
 30
4.612317085266113
 11
10.135232925415039
 21
30.0
 31
2.3218579292297363
 12
0.0
 22
30.0
 32
0.0
 13
0.0
 23
30.0
 33
0.0
  0
3DFACE
  8
0
 10
49.864768981933594
 20
30.0
 30
2.3218579292297363
 11
60.0
 21
30.0
 31
0.0
 12
50.0
 22
30.0
 32
0.0
 13
50.0
 23
30.0
 33
0.0
  0
3DFACE
  8
0
 10
49.864768981933594
 20
30.0
 30
2.3218579292297363
 11
49.460899353027344
 21
30.0
 31
4.612317085266113
 12
60.0
 22
30.0
 32
0.0
 13
60.0
 23
30.0
 33
0.0
  0
3DFACE
  8
0
 10
49.460899353027344
 20
30.0
 30
4.612317085266113
 11
60.0
 21
30.0
 31
30.0
 12
60.0
 22
30.0
 32
0.0
 13
60.0
 23
30.0
 33
0.0
  0
3DFACE
  8
0
 10
48.793853759765625
 20
30.0
 30
6.840402126312256
 11
60.0
 21
30.0
 31
30.0
 12
49.460899353027344
 22
30.0
 32
4.612317085266113
 13
49.460899353027344
 23
30.0
 33
4.612317085266113
  0
3DFACE
  8
0
 10
0.0
 20
30.0
 30
30.0
 11
12.127346992492676
 21
30.0
 31
8.975982666015625
 12
11.206147193908691
 22
30.0
 32
6.840402126312256
 13
11.206147193908691
 23
30.0
 33
6.840402126312256
  0
3DFACE
  8
0
 10
47.872650146484375
 20
30.0
 30
8.975982666015625
 11
60.0
 21
30.0
 31
30.0
 12
48.793853759765625
 22
30.0
 32
6.840402126312256
 13
48.793853759765625
 23
30.0
 33
6.840402126312256
  0
3DFACE
  8
0
 10
0.0
 20
30.0
 30
30.0
 11
13.290244102478027
 21
30.0
 31
10.990178108215332
 12
12.127346992492676
 22
30.0
 32
8.975982666015625
 13
12.127346992492676
 23
30.0
 33
8.975982666015625
  0
3DFACE
  8
0
 10
46.70975875854492
 20
30.0
 30
10.990178108215332
 11
60.0
 21
30.0
 31
30.0
 12
47.872650146484375
 22
30.0
 32
8.975982666015625
 13
47.872650146484375
 23
30.0
 33
8.975982666015625
  0
3DFACE
  8
0
 10
0.0
 20
30.0
 30
30.0
 11
14.67911148071289
 21
30.0
 31
12.855751037597656
 12
13.290244102478027
 22
30.0
 32
10.990178108215332
 13
13.290244102478027
 23
30.0
 33
10.990178108215332
  0
3DFACE
  8
0
 10
45.32088851928711
 20
30.0
 30
12.855751037597656
 11
60.0
 21
30.0
 31
30.0
 12
46.70975875854492
 22
30.0
 32
10.990178108215332
 13
46.70975875854492
 23
30.0
 33
10.990178108215332
  0
3DFACE
  8
0
 10
0.0
 20
30.0
 30
30.0
 11
16.27516746520996
 21
30.0
 31
14.54747200012207
 12
14.67911148071289
 22
30.0
 32
12.855751037597656
 13
14.67911148071289
 23
30.0
 33
12.855751037597656
  0
3DFACE
  8
0
 10
43.724830627441406
 20
30.0
 30
14.54747200012207
 11
60.0
 21
30.0
 31
30.0
 12
45.32088851928711
 22
30.0
 32
12.855751037597656
 13
45.32088851928711
 23
30.0
 33
12.855751037597656
  0
3DFACE
  8
0
 10
0.0
 20
30.0
 30
30.0
 11
18.05682945251465
 21
30.0
 31
16.042463302612305
 12
16.27516746520996
 22
30.0
 32
14.54747200012207
 13
16.27516746520996
 23
30.0
 33
14.54747200012207
  0
3DFACE
  8
0
 10
41.94316864013672
 20
30.0
 30
16.042463302612305
 11
60.0
 21
30.0
 31
30.0
 12
43.724830627441406
 22
30.0
 32
14.54747200012207
 13
43.724830627441406
 23
30.0
 33
14.54747200012207
  0
3DFACE
  8
0
 10
0.0
 20
30.0
 30
30.0
 11
20.0
 21
30.0
 31
17.320507049560547
 12
18.05682945251465
 22
30.0
 32
16.042463302612305
 13
18.05682945251465
 23
30.0
 33
16.042463302612305
  0
3DFACE
  8
0
 10
40.0
 20
30.0
 30
17.320507049560547
 11
60.0
 21
30.0
 31
30.0
 12
41.94316864013672
 22
30.0
 32
16.042463302612305
 13
41.94316864013672
 23
30.0
 33
16.042463302612305
  0
3DFACE
  8
0
 10
0.0
 20
30.0
 30
30.0
 11
22.07840347290039
 21
30.0
 31
18.364320755004883
 12
20.0
 22
30.0
 32
17.320507049560547
 13
20.0
 23
30.0
 33
17.320507049560547
  0
3DFACE
  8
0
 10
37.92159652709961
 20
30.0
 30
18.364320755004883
 11
60.0
 21
30.0
 31
30.0
 12
40.0
 22
30.0
 32
17.320507049560547
 13
40.0
 23
30.0
 33
17.320507049560547
  0
3DFACE
  8
0
 10
0.0
 20
30.0
 30
30.0
 11
24.263935089111328
 21
30.0
 31
19.1597900390625
 12
22.07840347290039
 22
30.0
 32
18.364320755004883
 13
22.07840347290039
 23
30.0
 33
18.364320755004883
  0
3DFACE
  8
0
 10
35.73606491088867
 20
30.0
 30
19.1597900390625
 11
60.0
 21
30.0
 31
30.0
 12
37.92159652709961
 22
30.0
 32
18.364320755004883
 13
37.92159652709961
 23
30.0
 33
18.364320755004883
  0
3DFACE
  8
0
 10
0.0
 20
30.0
 30
30.0
 11
26.527036666870117
 21
30.0
 31
19.696155548095703
 12
24.263935089111328
 22
30.0
 32
19.1597900390625
 13
24.263935089111328
 23
30.0
 33
19.1597900390625
  0
3DFACE
  8
0
 10
33.47296142578125
 20
30.0
 30
19.696155548095703
 11
60.0
 21
30.0
 31
30.0
 12
35.73606491088867
 22
30.0
 32
19.1597900390625
 13
35.73606491088867
 23
30.0
 33
19.1597900390625
  0
3DFACE
  8
0
 10
0.0
 20
30.0
 30
30.0
 11
28.83710289001465
 21
30.0
 31
19.966163635253906
 12
26.527036666870117
 22
30.0
 32
19.696155548095703
 13
26.527036666870117
 23
30.0
 33
19.696155548095703
  0
3DFACE
  8
0
 10
31.16289710998535
 20
30.0
 30
19.966163635253906
 11
60.0
 21
30.0
 31
30.0
 12
33.47296142578125
 22
30.0
 32
19.696155548095703
 13
33.47296142578125
 23
30.0
 33
19.696155548095703
  0
3DFACE
  8
0
 10
0.0
 20
30.0
 30
30.0
 11
31.16289710998535
 21
30.0
 31
19.966163635253906
 12
28.83710289001465
 22
30.0
 32
19.966163635253906
 13
28.83710289001465
 23
30.0
 33
19.966163635253906
  0
3DFACE
  8
0
 10
0.0
 20
30.0
 30
30.0
 11
60.0
 21
30.0
 31
30.0
 12
31.16289710998535
 22
30.0
 32
19.966163635253906
 13
31.16289710998535
 23
30.0
 33
19.966163635253906
  0
ENDSEC
  0
EOF
