<?xml version="1.0" encoding="UTF-8" standalone="no"?>
<svg
   xmlns:dc="http://purl.org/dc/elements/1.1/"
   xmlns:cc="http://creativecommons.org/ns#"
   xmlns:rdf="http://www.w3.org/1999/02/22-rdf-syntax-ns#"
   xmlns:svg="http://www.w3.org/2000/svg"
   xmlns="http://www.w3.org/2000/svg"
   version="1.1"
   id="svg2"
   viewBox="0 0 744.09448819 1052.3622047"
   height="297mm"
   width="210mm">
  <defs
     id="defs4" />
  <metadata
     id="metadata7">
    <rdf:RDF>
      <cc:Work
         rdf:about="">
        <dc:format>image/svg+xml</dc:format>
        <dc:type
           rdf:resource="http://purl.org/dc/dcmitype/StillImage" />
        <dc:title></dc:title>
      </cc:Work>
    </rdf:RDF>
  </metadata>
  <g
     id="layer1">
    <text
       id="text3390"
       y="256.362"
       x="159.6041"
       style="font-style:normal;font-variant:normal;font-weight:normal;font-stretch:normal;font-size:40px;line-height:125%;font-family:'文泉驿等宽微米黑';-inkscape-font-specification:'文泉驿等宽微米黑, Normal';text-align:start;letter-spacing:0px;word-spacing:0px;writing-mode:lr-tb;text-anchor:start;fill:#000000;fill-opacity:1;stroke:none;stroke-width:1px;stroke-linecap:butt;stroke-linejoin:miter;stroke-opacity:1"
       xml:space="preserve"><tspan
         y="256.362"
         x="159.6041"
         id="tspan3392" /></text>
    <g
       transform="matrix(4.2734842,0,0,5.0149726,-531.66817,-1135.331)"
       id="text3394"
       style="font-style:normal;font-variant:normal;font-weight:normal;font-stretch:normal;font-size:40px;line-height:125%;font-family:'文泉驿等宽微米黑';-inkscape-font-specification:'文泉驿等宽微米黑, Normal';text-align:start;letter-spacing:0px;word-spacing:0px;writing-mode:lr-tb;text-anchor:start;fill:#000000;fill-opacity:1;stroke:none;stroke-width:1px;stroke-linecap:butt;stroke-linejoin:miter;stroke-opacity:1">
      <g
         id="text3404"
         style="font-style:normal;font-variant:normal;font-weight:normal;font-stretch:normal;font-size:51.43444443px;line-height:125%;font-family:'文泉驿微米黑';-inkscape-font-specification:'文泉驿微米黑, Normal';text-align:start;letter-spacing:0px;word-spacing:0px;writing-mode:lr-tb;text-anchor:start;fill:#000000;fill-opacity:1;stroke:none;stroke-width:1px;stroke-linecap:butt;stroke-linejoin:miter;stroke-opacity:1"
         transform="matrix(1.0029703,0,0,0.99703849,5.6730433,-3.5249783)">
        <path
           id="path3409"
           d="m 158.33428,280.70007 17.68059,0 0,-3.8174 4.01832,0 0,3.8174 17.68059,0 0,3.61649 -14.66685,0 17.68059,9.24212 -2.00916,3.8174 -18.68517,-11.65311 0,10.64853 -4.01832,0 0,-10.64853 -18.08242,11.85403 -2.6119,-3.41557 17.27875,-9.84487 -14.26502,0 z m -3.41557,29.13279 21.69891,0 0,-3.41557 9.24213,-4.01831 -23.10532,0 0,-3.8174 30.13737,0 0,4.21923 -12.05495,5.42473 0,1.60732 20.2925,0 0,3.8174 -20.2925,0 0,5.62564 -1.40641,3.01374 -4.21923,1.00458 -5.0229,-0.80366 -0.60274,-4.01832 4.62106,0.80366 2.41099,-0.80366 0,-4.82198 -21.69891,0 z" />
      </g>
    </g>
  </g>
</svg>
